<?xml version="1.0" encoding="UTF-8" standalone="no"?>
<svg
   height="24px"
   viewBox="0 -960 960 960"
   width="24px"
   fill="var(--primary-color)"
   version="1.1"
   id="svg1"
   sodipodi:docname="calendar-event.svg"
   inkscape:version="1.4.2 (ebf0e94, 2025-05-08)"
   xmlns:inkscape="http://www.inkscape.org/namespaces/inkscape"
   xmlns:sodipodi="http://sodipodi.sourceforge.net/DTD/sodipodi-0.dtd"
   xmlns="http://www.w3.org/2000/svg"
   xmlns:svg="http://www.w3.org/2000/svg">
  <defs
     id="defs1" />
  <sodipodi:namedview
     id="namedview1"
     pagecolor="#505050"
     bordercolor="#ffffff"
     borderopacity="1"
     inkscape:showpageshadow="0"
     inkscape:pageopacity="0"
     inkscape:pagecheckerboard="1"
     inkscape:deskcolor="#505050"
     inkscape:zoom="34.583333"
     inkscape:cx="12"
     inkscape:cy="12"
     inkscape:window-width="1920"
     inkscape:window-height="1032"
     inkscape:window-x="0"
     inkscape:window-y="25"
     inkscape:window-maximized="1"
     inkscape:current-layer="svg1" />
  <path
     d="m 600,-192 q -50.4,0 -85.2,-34.8 -34.8,-34.8 -34.8,-85.2 0,-50.4 34.8,-85.2 34.8,-34.8 85.2,-34.8 50.4,0 85.2,34.8 34.8,34.8 34.8,85.2 0,50.4 -34.8,85.2 Q 650.4,-192 600,-192 Z M 144,0 Q 104.4,0 76.2,-28.2 48,-56.4 48,-96 v -672 q 0,-39.6 28.2,-67.8 28.2,-28.2 67.8,-28.2 h 48 v -96 h 96 v 96 h 384 v -96 h 96 v 96 h 48 q 39.6,0 67.8,28.2 28.2,28.2 28.2,67.8 v 672 q 0,39.6 -28.2,67.8 Q 855.6,0 816,0 Z m 0,-96 H 816 V -576 H 144 Z m 0,-576 h 672 v -96 H 144 Z m 0,0 v -96 z"
     id="path1"
     style="stroke-width:1.2" />
</svg>
