<?xml version="1.0" encoding="UTF-8" standalone="no"?>
<svg
   height="24px"
   viewBox="0 -960 960 960"
   width="24px"
   fill="var(--primary-color)"
   version="1.1"
   id="svg1"
   sodipodi:docname="dark-mode.svg"
   inkscape:version="1.4.2 (ebf0e94, 2025-05-08)"
   xmlns:inkscape="http://www.inkscape.org/namespaces/inkscape"
   xmlns:sodipodi="http://sodipodi.sourceforge.net/DTD/sodipodi-0.dtd"
   xmlns="http://www.w3.org/2000/svg"
   xmlns:svg="http://www.w3.org/2000/svg">
  <defs
     id="defs1" />
  <sodipodi:namedview
     id="namedview1"
     pagecolor="#505050"
     bordercolor="#ffffff"
     borderopacity="1"
     inkscape:showpageshadow="0"
     inkscape:pageopacity="0"
     inkscape:pagecheckerboard="1"
     inkscape:deskcolor="#505050"
     inkscape:zoom="34.583333"
     inkscape:cx="12"
     inkscape:cy="12"
     inkscape:window-width="1920"
     inkscape:window-height="1032"
     inkscape:window-x="0"
     inkscape:window-y="25"
     inkscape:window-maximized="1"
     inkscape:current-layer="svg1" />
  <path
     d="M 480,0 Q 280,0 140,-140 0,-280 0,-480 q 0,-200 140,-340 140,-140 340,-140 18.66667,0 36.66667,1.33333 18,1.33334 35.33333,4 Q 497.33333,-916 464.66667,-854 432,-792 432,-720 q 0,120 84,204 84,84 204,84 73.33333,0 134.66667,-32.66667 Q 916,-497.33333 954.6667,-552 q 2.6666,17.33333 4,35.33333 1.3333,18 1.3333,36.66667 0,200 -140,340 Q 680,0 480,0 Z m 0,-106.66667 q 117.33333,0 210.66667,-64.66666 Q 784,-236 826.66667,-340 800,-333.33333 773.33333,-329.33333 q -26.66666,4 -53.33333,4 -164,0 -279.33333,-115.33334 Q 325.33333,-556 325.33333,-720 q 0,-26.66667 4,-53.33333 4,-26.66667 10.66667,-53.33334 -104,42.66667 -168.66667,136 -64.66666,93.33334 -64.66666,210.66667 0,154.66667 109.33333,264 109.33333,109.33333 264,109.33333 z m -13.33333,-360 z"
     id="path1"
     style="stroke-width:1.33333" />
</svg>
