<?xml version="1.0" encoding="UTF-8" standalone="no"?>
<svg
   height="24px"
   viewBox="0 -960 960 960"
   width="24px"
   fill="var(--primary-color)"
   version="1.1"
   id="svg1"
   sodipodi:docname="format-quote.svg"
   inkscape:version="1.4.2 (ebf0e94, 2025-05-08)"
   xmlns:inkscape="http://www.inkscape.org/namespaces/inkscape"
   xmlns:sodipodi="http://sodipodi.sourceforge.net/DTD/sodipodi-0.dtd"
   xmlns="http://www.w3.org/2000/svg"
   xmlns:svg="http://www.w3.org/2000/svg">
  <defs
     id="defs1" />
  <sodipodi:namedview
     id="namedview1"
     pagecolor="#505050"
     bordercolor="#ffffff"
     borderopacity="1"
     inkscape:showpageshadow="0"
     inkscape:pageopacity="0"
     inkscape:pagecheckerboard="1"
     inkscape:deskcolor="#505050"
     inkscape:zoom="34.583333"
     inkscape:cx="12"
     inkscape:cy="12"
     inkscape:window-width="1920"
     inkscape:window-height="1032"
     inkscape:window-x="0"
     inkscape:window-y="25"
     inkscape:window-maximized="1"
     inkscape:current-layer="svg1" />
  <path
     d="m 96,-141.17647 129.88235,-225.88235 q -93.17647,0 -159.52941,-66.35295 Q 0,-499.76471 0,-592.94118 q 0,-93.17647 66.35294,-159.52941 66.35294,-66.35294 159.52941,-66.35294 93.17647,0 159.52941,66.35294 66.35295,66.35294 66.35295,159.52941 0,32.47059 -7.76471,60 -7.76471,27.52941 -23.29412,52.94118 l -194.82353,338.82353 z m 508.23529,0 129.88236,-225.88235 q -93.17647,0 -159.52941,-66.35295 -66.35295,-66.35294 -66.35295,-159.52941 0,-93.17647 66.35295,-159.52941 66.35294,-66.35294 159.52941,-66.35294 93.17647,0 159.52945,66.35294 Q 960,-686.11765 960,-592.94118 q 0,32.47059 -7.7647,60 -7.7647,27.52941 -23.2941,52.94118 L 734.11765,-141.17647 Z M 225.88235,-508.23529 q 35.29412,0 60,-24.70589 24.70589,-24.70588 24.70589,-60 0,-35.29411 -24.70589,-60 -24.70588,-24.70588 -60,-24.70588 -35.29411,0 -60,24.70588 -24.70588,24.70589 -24.70588,60 0,35.29412 24.70588,60 24.70589,24.70589 60,24.70589 z m 508.2353,0 q 35.29411,0 60,-24.70589 24.70588,-24.70588 24.70588,-60 0,-35.29411 -24.70588,-60 -24.70589,-24.70588 -60,-24.70588 -35.29412,0 -60,24.70588 -24.70589,24.70589 -24.70589,60 0,35.29412 24.70589,60 24.70588,24.70589 60,24.70589 z m 0,-84.70589 z m -508.2353,0 z"
     id="path1"
     style="stroke-width:1.41176" />
</svg>
