<?xml version="1.0" encoding="UTF-8" standalone="no"?>
<!-- Created with Inkscape (http://www.inkscape.org/) -->

<svg
   width="24"
   height="24"
   viewBox="0 0 6.3499999 6.35"
   version="1.1"
   id="svg1"
   xml:space="preserve"
   xmlns:inkscape="http://www.inkscape.org/namespaces/inkscape"
   xmlns:sodipodi="http://sodipodi.sourceforge.net/DTD/sodipodi-0.dtd"
   xmlns="http://www.w3.org/2000/svg"
   xmlns:svg="http://www.w3.org/2000/svg"><sodipodi:namedview
     id="namedview1"
     pagecolor="#9f9f9f"
     bordercolor="#ffffff"
     borderopacity="1"
     inkscape:showpageshadow="0"
     inkscape:pageopacity="0"
     inkscape:pagecheckerboard="1"
     inkscape:deskcolor="#505050"
     inkscape:document-units="px"
     inkscape:zoom="21.774134"
     inkscape:cx="13.984483"
     inkscape:cy="16.120044"
     inkscape:window-width="1920"
     inkscape:window-height="1032"
     inkscape:window-x="0"
     inkscape:window-y="25"
     inkscape:window-maximized="1"
     inkscape:current-layer="layer1"><inkscape:page
       x="0"
       y="0"
       width="6.3499999"
       height="6.3499999"
       id="page2"
       margin="0"
       bleed="0" /></sodipodi:namedview><defs
     id="defs1" /><g
     inkscape:label="Layer 1"
     inkscape:groupmode="layer"
     id="layer1"><g
       id="g5"
       transform="matrix(1.9717126,0,0,1.9717126,-3.0851874,-3.0851874)"><g
         id="g4"><g
           id="g3"><g
             id="g2"><g
               id="g1"><circle
                 cx="3.175"
                 cy="3.175"
                 r="1.5393667"
                 fill="#fef3c7"
                 stroke="#1c1917"
                 stroke-width="0.115453"
                 id="circle1"
                 style="stroke-width:0.141817;stroke-dasharray:none" /><circle
                 cx="3.175"
                 cy="3.175"
                 r="1.3769783"
                 fill="#fef3c7"
                 stroke-width="0.115453"
                 id="circle1-0"
                 style="stroke:#92400e;stroke-width:0.228956;stroke-dasharray:none;stroke-opacity:1" /><path
                 d="M 2.3983352,3.9017865 V 3.7938883 h 0.085505 q 0.042751,0 0.07329,-0.022395 0.030537,-0.022395 0.030537,-0.1099341 v -0.981264 q 0,-0.081433 -0.032574,-0.1017909 -0.030537,-0.022395 -0.071253,-0.022395 H 2.3983352 V 2.4482124 h 0.7023573 v 0.1078982 h -0.08754 q -0.042752,0 -0.07329,0.022395 -0.030537,0.022395 -0.030537,0.1099343 v 0.392912 H 3.4406742 V 2.688439 q 0,-0.08754 -0.030537,-0.1099343 -0.030537,-0.022395 -0.07329,-0.022395 h -0.08754 V 2.4482123 h 0.7023576 v 0.1078982 h -0.085505 q -0.042751,0 -0.073291,0.022395 -0.030539,0.022395 -0.030539,0.1099343 v 0.9833001 q 0,0.081433 0.030539,0.101791 0.032575,0.020358 0.073291,0.020358 h 0.085504 V 3.9017865 H 3.2493072 V 3.7938883 h 0.08754 q 0.042751,0 0.07329,-0.022395 0.030537,-0.022395 0.030537,-0.109934 V 3.2055367 H 2.9093257 V 3.66156 q 0,0.08754 0.030537,0.1099342 0.030536,0.022395 0.07329,0.022395 h 0.08754 v 0.1078984 z"
                 id="text1"
                 style="font-weight:bold;font-size:34.1812px;font-family:Georgia, serif;text-anchor:middle;fill:#92400e;stroke:#000000;stroke-width:0.0473994;stroke-dasharray:none;stroke-opacity:1"
                 aria-label="H" /></g></g></g></g></g></g></svg>
