<?xml version="1.0" encoding="UTF-8" standalone="no"?>
<svg
   height="24px"
   viewBox="0 -960 960 960"
   width="24px"
   fill="var(--primary-color)"
   version="1.1"
   id="svg1"
   sodipodi:docname="map.svg"
   inkscape:version="1.4.2 (ebf0e94, 2025-05-08)"
   xmlns:inkscape="http://www.inkscape.org/namespaces/inkscape"
   xmlns:sodipodi="http://sodipodi.sourceforge.net/DTD/sodipodi-0.dtd"
   xmlns="http://www.w3.org/2000/svg"
   xmlns:svg="http://www.w3.org/2000/svg">
  <defs
     id="defs1" />
  <sodipodi:namedview
     id="namedview1"
     pagecolor="#505050"
     bordercolor="#ffffff"
     borderopacity="1"
     inkscape:showpageshadow="0"
     inkscape:pageopacity="0"
     inkscape:pagecheckerboard="1"
     inkscape:deskcolor="#505050"
     inkscape:zoom="34.583333"
     inkscape:cx="12"
     inkscape:cy="12"
     inkscape:window-width="1920"
     inkscape:window-height="1032"
     inkscape:window-x="0"
     inkscape:window-y="25"
     inkscape:window-maximized="1"
     inkscape:current-layer="svg1" />
  <path
     d="M 640,0 320,-112 72,-16 Q 45.33333,-5.33333 22.66667,-22 0,-38.666667 0,-66.666667 V -813.33333 Q 0,-830.66667 10,-844 20,-857.33333 37.33333,-864 L 320,-960 l 320,112 248,-96 q 26.6667,-10.66667 49.3333,6 Q 960,-921.33333 960,-893.33333 v 746.66666 q 0,17.33334 -10,30.66667 -10,13.33333 -27.3333,20 z m -53.33333,-130.66667 v -624 l -213.33334,-74.66666 v 624 z m 106.66666,0 160,-53.33333 v -632 l -160,61.33333 z M 106.66667,-144 l 160,-61.33333 v -624 l -160,53.33333 z m 586.66666,-610.66667 v 624 z m -426.66666,-74.66666 v 624 z"
     id="path1"
     style="stroke-width:1.33333" />
</svg>
