<?xml version="1.0" encoding="UTF-8" standalone="no"?>
<svg
   height="24px"
   viewBox="0 -960 960 960"
   width="24px"
   fill="var(--primary-color)"
   version="1.1"
   id="svg1"
   sodipodi:docname="refresh.svg"
   inkscape:version="1.4.2 (1:1.4.2+202505120737+ebf0e940d0)"
   xmlns:inkscape="http://www.inkscape.org/namespaces/inkscape"
   xmlns:sodipodi="http://sodipodi.sourceforge.net/DTD/sodipodi-0.dtd"
   xmlns="http://www.w3.org/2000/svg"
   xmlns:svg="http://www.w3.org/2000/svg">
  <defs
     id="defs1" />
  <sodipodi:namedview
     id="namedview1"
     pagecolor="#505050"
     bordercolor="#ffffff"
     borderopacity="1"
     inkscape:showpageshadow="0"
     inkscape:pageopacity="0"
     inkscape:pagecheckerboard="1"
     inkscape:deskcolor="#505050"
     inkscape:zoom="34.583333"
     inkscape:cx="12"
     inkscape:cy="12"
     inkscape:window-width="1920"
     inkscape:window-height="1032"
     inkscape:window-x="0"
     inkscape:window-y="25"
     inkscape:window-maximized="1"
     inkscape:current-layer="svg1" />
  <path
     d="M 480,0 Q 279,0 139.5,-139.5 0,-279 0,-480 0,-681 139.5,-820.5 279,-960 480,-960 q 103.5,0 198,42.75 94.5,42.75 162,122.25 v -165 h 120 v 420 H 540 V -660 H 792 Q 744,-744 660.75,-792 577.5,-840 480,-840 q -150,0 -255,105 -105,105 -105,255 0,150 105,255 105,105 255,105 115.5,0 208.5,-66 93,-66 130.5,-174 H 945 Q 903,-201 774,-100.5 645,0 480,0 Z"
     id="path1"
     style="stroke-width:1.5" />
</svg>
