<?xml version="1.0" encoding="UTF-8" standalone="no"?>
<svg
   height="24px"
   viewBox="0 -960 960 960"
   width="24px"
   fill="var(--primary-color)"
   version="1.1"
   id="svg1"
   sodipodi:docname="satellite.svg"
   inkscape:version="1.4.2 (ebf0e94, 2025-05-08)"
   xmlns:inkscape="http://www.inkscape.org/namespaces/inkscape"
   xmlns:sodipodi="http://sodipodi.sourceforge.net/DTD/sodipodi-0.dtd"
   xmlns="http://www.w3.org/2000/svg"
   xmlns:svg="http://www.w3.org/2000/svg">
  <defs
     id="defs1" />
  <sodipodi:namedview
     id="namedview1"
     pagecolor="#505050"
     bordercolor="#ffffff"
     borderopacity="1"
     inkscape:showpageshadow="0"
     inkscape:pageopacity="0"
     inkscape:pagecheckerboard="1"
     inkscape:deskcolor="#505050"
     inkscape:zoom="19.371638"
     inkscape:cx="9.8081536"
     inkscape:cy="11.047078"
     inkscape:window-width="1920"
     inkscape:window-height="1032"
     inkscape:window-x="0"
     inkscape:window-y="25"
     inkscape:window-maximized="1"
     inkscape:current-layer="svg1" />
  <path
     d="m 584.34783,0 v -83.478261 q 122.08695,0 207.13043,-85.043479 85.04348,-85.04348 85.04348,-207.13043 H 960 q 0,78.26087 -29.73913,146.60869 -29.73913,68.34783 -80.34783,118.95652 -50.60869,50.608699 -118.95652,80.34783 Q 662.6087,0 584.34783,0 Z m 0,-166.95652 v -83.47826 q 52.17391,0 88.69565,-36.52174 36.52174,-36.52174 36.52174,-88.69565 h 83.47826 q 0,86.60869 -61.04348,147.65217 -61.04348,61.04348 -147.65217,61.04348 z M 231.65217,-26.086957 q -15.65217,0 -31.30434,-6.260869 -15.65218,-6.26087 -28.17392,-17.739131 L 24,-198.26087 Q 12.521739,-210.78261 6.2608696,-226.43478 0,-242.08696 0,-257.73913 0,-274.43478 6.2608696,-289.56522 12.521739,-304.69565 24,-316.17391 l 132.52174,-132.52174 q 24,-24 59.47826,-24.52174 35.47826,-0.52174 59.47826,23.47826 l 52.17391,52.17391 29.2174,-29.21739 -52.17392,-52.17391 q -24,-24 -24,-58.43478 0,-34.43479 24,-58.43479 l 59.47826,-59.47826 q 24,-24 58.95652,-24 34.95653,0 58.95653,24 l 52.17391,52.17392 29.21739,-29.2174 -52.17391,-52.17391 q -24,-24 -24,-58.95652 0,-34.95652 24,-58.95652 L 643.82609,-934.95652 Q 656.34783,-947.47826 672,-953.73913 687.65217,-960 703.30435,-960 q 15.65217,0 30.78261,6.26087 15.13043,6.26087 27.65217,18.78261 l 148.17391,148.17391 q 12.52174,11.47826 18.26087,26.6087 5.73913,15.13043 5.73913,31.82608 0,15.65218 -5.73913,31.30435 -5.73913,15.65218 -18.26087,28.17391 L 777.3913,-536.34783 q -24,24 -58.95652,24 -34.95652,0 -58.95652,-24 l -52.17391,-52.17391 -29.21739,29.21739 52.17391,52.17392 q 24,24 23.47826,58.95652 -0.52174,34.95652 -24.52174,58.95652 l -58.43478,58.43478 q -24,24 -58.95652,24 -34.95652,0 -58.95652,-24 l -52.17392,-52.17391 -29.21739,29.21739 52.17391,52.17391 q 24,24 23.47826,59.47826 -0.52173,35.47826 -24.52173,59.47826 L 290.08696,-50.086957 q -11.47826,11.478261 -26.6087,17.739131 -15.13043,6.260869 -31.82609,6.260869 z m 0,-82.434783 43.82609,-43.82609 -148.17391,-148.17391 -43.826089,43.82609 z m 88.69566,-88.69565 43.82608,-43.82609 L 216,-389.21739 172.17391,-345.3913 Z m 192,-192 58.43478,-58.43478 -148.17391,-148.17392 -58.43479,58.43479 z m 206.60869,-206.6087 43.82609,-43.82608 L 614.6087,-787.82609 570.78261,-744 Z m 88.69565,-88.69565 43.82609,-43.82609 -148.17391,-148.17391 -43.82609,43.82609 z m -340.17391,192 z"
     id="path1"
     style="stroke-width:1.04348" />
</svg>
