<?xml version="1.0" encoding="UTF-8" standalone="no"?>
<svg
   height="24px"
   viewBox="0 -960 960 960"
   width="24px"
   fill="var(--primary-color)"
   version="1.1"
   id="svg1"
   sodipodi:docname="search.svg"
   inkscape:version="1.4.2 (ebf0e94, 2025-05-08)"
   xmlns:inkscape="http://www.inkscape.org/namespaces/inkscape"
   xmlns:sodipodi="http://sodipodi.sourceforge.net/DTD/sodipodi-0.dtd"
   xmlns="http://www.w3.org/2000/svg"
   xmlns:svg="http://www.w3.org/2000/svg">
  <defs
     id="defs1" />
  <sodipodi:namedview
     id="namedview1"
     pagecolor="#505050"
     bordercolor="#ffffff"
     borderopacity="1"
     inkscape:showpageshadow="0"
     inkscape:pageopacity="0"
     inkscape:pagecheckerboard="1"
     inkscape:deskcolor="#505050"
     inkscape:zoom="34.583333"
     inkscape:cx="12"
     inkscape:cy="12"
     inkscape:window-width="1920"
     inkscape:window-height="1032"
     inkscape:window-x="0"
     inkscape:window-y="25"
     inkscape:window-maximized="1"
     inkscape:current-layer="svg1" />
  <path
     d="M 885.3333,0 549.33333,-336 q -40,32 -92,50.66667 -52,18.66666 -110.66666,18.66666 -145.33334,0 -246,-100.66666 Q 0,-468 0,-613.33333 q 0,-145.33334 100.66667,-246 Q 201.33333,-960 346.66667,-960 q 145.33333,0 246,100.66667 100.66666,100.66666 100.66666,246 0,58.66666 -18.66666,110.66666 -18.66667,52 -50.66667,92 L 960,-74.666667 Z M 346.66667,-373.33333 q 100,0 170,-70 70,-70 70,-170 0,-100 -70,-170 -70,-70 -170,-70 -100,0 -170,70 -70,70 -70,170 0,100 70,170 70,70 170,70 z"
     id="path1"
     style="stroke-width:1.33333" />
</svg>
